/* XPM */
static char *_137144151c346a2a83a4d9fece4883636oIRknm5MwMrZt7[] = {
/* columns rows colors chars-per-pixel */
"64 64 246 2 ",
"   c None",
".  c #010202",
"X  c #0A0002",
"o  c #01020B",
"O  c #000A0B",
"+  c #0A0508",
"@  c #140000",
"#  c #1B0100",
"$  c #170508",
"%  c #010111",
"&  c #010C15",
"*  c #001315",
"=  c #011719",
"-  c #131202",
";  c #220100",
":  c #290D01",
">  c #260B02",
",  c #340700",
"<  c #2F1709",
"1  c #3B2419",
"2  c #031C23",
"3  c #12282F",
"4  c #353633",
"5  c #421400",
"6  c #5E1D00",
"7  c #6C1C00",
"8  c #691A01",
"9  c #731E00",
"0  c #771C01",
"q  c #6B0A00",
"w  c #5A2708",
"e  c #48281A",
"r  c #562B15",
"t  c #522D10",
"y  c #652502",
"u  c #6C2302",
"i  c #6D2A03",
"p  c #6C2B0B",
"a  c #662708",
"s  c #732401",
"d  c #792500",
"f  c #732A02",
"g  c #7A2B05",
"h  c #742B0A",
"j  c #78280A",
"k  c #743208",
"l  c #692813",
"z  c #663417",
"x  c #7D3513",
"c  c #763413",
"v  c #702F0F",
"b  c #433A35",
"n  c #503224",
"m  c #693022",
"M  c #384637",
"N  c #004535",
"B  c #67503B",
"V  c #4F4734",
"C  c #0A3D47",
"Z  c #314C42",
"A  c #357268",
"S  c #167577",
"D  c #755749",
"F  c #70564B",
"G  c #5C7477",
"H  c #48554B",
"J  c #832A02",
"K  c #88360A",
"L  c #853713",
"P  c #812E10",
"I  c #A44A1F",
"U  c #934B21",
"Y  c #AA5D39",
"T  c #AD5A31",
"R  c #BD653E",
"E  c #B86A3C",
"W  c #90491F",
"Q  c #C2653C",
"!  c #C86739",
"~  c #D56C3B",
"^  c #DA743E",
"/  c #D4733C",
"(  c #EC7A3B",
")  c #A9684A",
"_  c #B66544",
"`  c #BC6542",
"'  c #B56A44",
"]  c #BB6945",
"[  c #B5664A",
"{  c #BB664A",
"}  c #B56A4B",
"|  c #BA6949",
" . c #BA734B",
".. c #AD6C54",
"X. c #B56A53",
"o. c #B5715C",
"O. c #A97253",
"+. c #B06954",
"@. c #C26644",
"#. c #C46B44",
"$. c #CC6D44",
"%. c #C46C4B",
"&. c #CD6E4A",
"*. c #C66447",
"=. c #D36E44",
"-. c #D86F43",
";. c #D26E4A",
":. c #CD7146",
">. c #C3724D",
",. c #CD714B",
"<. c #C77446",
"1. c #D37245",
"2. c #DC7442",
"3. c #D2724A",
"4. c #D9754B",
"5. c #D8794A",
"6. c #C87552",
"7. c #D47653",
"8. c #E77D4A",
"9. c #E97C4A",
"0. c #EA7945",
"q. c #F37C46",
"w. c #72A17D",
"e. c #FE873F",
"r. c #B48166",
"t. c #DE8757",
"y. c #ED854E",
"u. c #F28044",
"i. c #FD8544",
"p. c #FD8A44",
"a. c #F6864C",
"s. c #FB854C",
"d. c #F5894D",
"f. c #FC894C",
"g. c #EA8855",
"h. c #F58754",
"j. c #FC8551",
"k. c #F48B52",
"l. c #FC8953",
"z. c #FD8E5C",
"x. c #F9875A",
"c. c #FA915A",
"v. c #F6935A",
"b. c #EC905D",
"n. c #DB986A",
"m. c #D39675",
"M. c #CD8F73",
"N. c #FC9564",
"B. c #EC9264",
"V. c #5E7B8B",
"C. c #2D8F91",
"Z. c #39AAB1",
"A. c #3AA297",
"S. c #4A999C",
"D. c #599698",
"F. c #508B92",
"G. c #698B96",
"H. c #768D9C",
"J. c #7A8D9B",
"K. c #778A93",
"L. c #6C9595",
"P. c #65969C",
"I. c #6C959C",
"U. c #649A9C",
"Y. c #6C999B",
"T. c #679994",
"R. c #73939B",
"E. c #779699",
"W. c #6E8E8A",
"Q. c #6FA29B",
"!. c #4D99A3",
"~. c #5799A7",
"^. c #519EB0",
"/. c #6A8DA3",
"(. c #738EA2",
"). c #788DA7",
"_. c #6595A2",
"`. c #6C94A2",
"'. c #639AA2",
"]. c #6B9AA3",
"[. c #6697AA",
"{. c #7493A3",
"}. c #7A94A4",
"|. c #7797A4",
" X c #46A8AA",
".X c #58A5A6",
"XX c #59ADB6",
"oX c #59B9BB",
"OX c #4ABDBA",
"+X c #66A4AA",
"@X c #6DAAB4",
"#X c #53C1B6",
"$X c #58B8C3",
"%X c #3EFFFC",
"&X c #3EF5F9",
"*X c #55C8C9",
"=X c #4DCBCD",
"-X c #68D8D9",
";X c #74CED6",
":X c #71D8EC",
">X c #48FBEC",
",X c #57F6EB",
"<X c #4CFCF5",
"1X c #45FEFE",
"2X c #4BFEFE",
"3X c #48FBF6",
"4X c #54FBF4",
"5X c #53F5FC",
"6X c #5BF5FD",
"7X c #53FBFE",
"8X c #5AFBFD",
"9X c #59F7F5",
"0X c #57EBEE",
"qX c #69EDEA",
"wX c #76EEEB",
"eX c #7BECEB",
"rX c #78E4E6",
"tX c #6DF4ED",
"yX c #6CF8EE",
"uX c #66F5EB",
"iX c #72F3EC",
"pX c #74F8EC",
"aX c #74ECF4",
"sX c #6CF5F4",
"dX c #65F9F7",
"fX c #74F6F4",
"gX c #65EDF8",
"hX c #54DFDF",
"jX c #849492",
"kX c #88A49E",
"lX c #B4A689",
"zX c #8094A8",
"xX c #8EAEAF",
"cX c #ADAFB5",
"vX c #B99481",
"bX c #C29783",
"nX c #D29381",
"mX c #C3A286",
"MX c #B9B8C0",
"NX c #88D0D1",
"BX c #86E9E6",
"VX c #8AF4F3",
"CX c #EBFCF9",
"ZX c #F7F5F9",
"AX c #F4EEF1",
"SX c #DDFFFF",
/* pixels */
"                                                    O X X . X . . . . . X .                                                     ",
"                                            O . X . VX1X8X2X7X1X1X2X2X7X1XpXX . + .                                             ",
"                                    CXO . = ,X1X1X3X2XwXR.Y.R.`.Y.Y.Y.Y.rX3X<X>X3X>X* . .                                       ",
"                                X . O 2X1X,X}.L.L.I.I.!.1X~.Y.{.`.I.(.3X XJ.Y.H.Y.].uX8X7X. X .                                 ",
"                        AX. X o hX6X<X3X$X(.+X`.`.`.].^.3X~.R.].R.R.`.<X.X`.].I.I..XP.Z.2X7X6X,X* . .                           ",
"                        O BX2X9X].L.).`.qX,X'.].|.{.R.xXo X X X + o $ O G.].{.Y.E._.,XrX/.L.U.[.9X7XpXO                         ",
"                    . . BX4X=X!.+X}.T.T.~. XrX* O o o + l z z n m m z z + O o O O tXZ..XY.)._.Q. X*X5XfXO X                     ",
"              CX  CXoX*XXX@X*X,X].L.W.L.4 2 C e w r a t d p f h f f f f w a w w t N 2 3 R.L.Y.'.rX-XXXXX=XoX                    ",
"                CX$XoX#X].U.+XoX:X2 3 3 4 t t c k k f J 2.Y T Y Y Y Y Y x f f g h r e < 3 3 C -XXXXXR.'.@XOX.XSXCX  ZX          ",
"              A S ;X_.H.U.P.J.Y.F.> < 5 p f g U U I 8 s f.Q @.X.| | | | f s T I I J i u < 5 1 C.G.Y.U.R.|.`.*XC.A               ",
"            . aX4X$X`.Y.J.I.D.W.; z f f P L L  .` =.d s i.` ` } ] ] ] ] f 7 i.=.2.L L L f f v @ W.V.{.{.(.`.$X0XsX. CX          ",
"            = ;XaXfX X+XG.J.H ; y J J g _ | _ ] @.$.d s i.` ` } ] ] ] ] f 7 i.#.1.=.@.Y d P K f ; 4 E.K.+X XqXaXVX2             ",
"          = 2X~.G.Y.iXVXkX@ 5 y k g.i.~ ] _ ] | *.=.d s i.` ` | ] ] ] ] f 7 p.' ` =.$.#.=.-.7.f 8 a X xXVXtXL.I.S.2X* +         ",
"    AX    & qX[.P.I.R.@XX z i 9 y c.i.-.$.#.` 3.-.%.d s i.` ] ] #.@.' ] g 7 i.` ] &.4.-.=.-.4.c q g p X |.L.U.'.D.iX2 O     ZX  ",
"      . A.9XE.T.{.`.}.kX@ v W ` k c.s.,.3.;.` ,.1.] f s i.` @.@.;.&.] ` g 7 i.` ] _ :.-.-.,.7.f j.~ p # kXkX{.U.L.R.wXhXO       ",
"      * C.qX!.!.[.E.o # i s W @.i c.s.' &.3.] ;.3.| f s i.` $.1.=.3.] ] g 7 i.` ] ] 3.1.-.' %.f j.~ J f @ . L.}.~._.qX-X&       ",
"  . . 5X*X!.,X4XwX|.@ # c R ' @.i c.a.Q ,.$.Q =.-.' s s i.` =.=.=.,.] ] g 7 i.` ] ] 6.;.=.| #.h i.8.| p ; X R.-XdXsXS..X2XO .   ",
"  . . 5X=XY.E.K.E.$ g f s  .' ` i c.a.` >.3.,.3.&.] s s i.` =.=.=.,.] ] g 7 i.` ] ] | #.=.} <.h i.8.} s s a . G H.L.Y..X2XO .   ",
"  . . 5X*X{.U.Y.zX. p u { | ' @.i c.f._ | Q =.R _ { f s i.` =.=.=.,.] ] j 7 i.` ] ] ] #.=.` #.h i.8.X.{ u w X G Y.`.(..X2XO .   ",
"  . o 5X*XU.R.R.}.@ p u _ E ' @.i c.s._ | Q =.R ' { f 9 i.` $.=.1.,.] ] g 7 i.` ] ] ] #.=.&.4.h s.8.] ] s p . G R.Y.I..X2Xo o   ",
". VX>X+XjXL.P.o @ l k i ` ` ' @.i c.s.` | Q ,.@.` | f 9 i.R =.3.@.#.3.` g 7 i.` ] ] ] #.=.;.4.h i.8.' ] f i y - X D.{./.I.dXqX. ",
"o wX8X%X1X1X7X& # i l.x.| } ' { i c.f.` | ` ` ] _ | f s i.:.=.&.` #.1.` g 7 i.` ] ] ] #.=.;.4.h i.8._ ] ] ' J : & >X1X1X<X1XaX. ",
"X wX7X'.T.'.Y.. ; s l.g.] @.' @.i c.f.` { ] } | ` ] f s i.$.! ` ] #.1.` g 7 i.` ] ] ] #.=.;.4.h i.8.{ | ] ] s : + '.`..XY.6X,X. ",
". eX1XR._.J.L.@ # u q.x.] R ` ` k N.s.` ` ` ` ` ` ] s 8 i.~ %.Q ` #.&.` g 9 s.! ' ` ` #.] @.>.d l.0.` _ | Y f , X R.R.`.R.7XyX. ",
". eX1XR.`.I.T.e s p s s i i s s i s d p i s p s s i i f d s i i i f f i y u d s p i i i i i p i s d s s s s s a e T.{.I.R.8XyX. ",
". eX1XR.`.jXp z.( f.h.j.s.s.d.d.s.d.f.h.s.s.h.j.s.s.h.f.h.s.s.a.d.s.s.s.a.j.s.s.j.s.s.s.a.d.a.s.s.a.s.s.s.s.i.s.v.v jXI.R.8XyX. ",
"X iX1X,X6XwXs c.y.Q ' ! _ mXM.@.R @.Q _ *.[ bX) @.` R Q Q Q Q R lXM.E E Q Q Q Q Q *.mXm.R Q Q Q Q Q _ lX[ ! R Q } g BX2XuX1XyX. ",
". wX7X.X~.E.f x.h.R ` Q %...[ @.E ' @.` R } ) ' #.` @.| | | | { ..| E E } } | | | *.} | #.} | | | ] { ) @.@.] ) %.j Q.~._.dXtX. ",
". wX1XU.P.|.w.l J y a y u u y y 7 9 y a y u u u y a a s s s s u y u a 9 s s s s u u u u u s s s s s u u y u u 9 l jXE.R.R.7XyX. ",
". eX1XU.U.`.Y.@ , f u f f p f f h i f i f f f f f f u a y i s i f f f f f j d p g f f f f f u s h i f f f f s : $ /.].`.{.7XtX. ",
"o wX7XY.(.J.I.+ X f b.b.6.6.>.>.f B.N.t.>.>.>.>.>.6.f g v.5.7. .>.>.>.7.K d d.>.<.>.>.>.>.6. .s b.g.>.7.#.| h - + _.H.`.I.7XyX. ",
"X iX2XqXaXwXwX= @ i f.h.| ] ` | i c.s.-.3.,.` _ _ ] f s s.~ &.] { | ` 3.J 7 i.R ' ] ] ] ] ]  .d k.q.` 3.Q ` s : = aXrXaXeX7XqX. ",
"X wX1X,X6X6XuX& # i p.h.| | ` | i v.s.1.3.,.` | { | f s s./ $.] | } ` 3.J 8 i.Q ] ] | | | ] >.f l.q.` 3.! ` i : & 0X9X7XuX1XyX. ",
". eX1XR.].P.Y.o @ s p.k.Q O.X.| i z.s.` %.3.| | ] ] f s i.:.1.;.` | ! -.g 8 p.R ] ] ] ] ] ' %.f s.u.1.:.4.3.f : . `.Y.Y.R.5XyX. ",
". eX1XR._.Y.Y.o @ f p.b.o.4 F o.h v.i.] &.=.@.@.] ] f s i.` :.;.` #.-.;.g 8 p.R ] ] @.#._ ' %.f s.u.3.@.3.3.f : . `.Y.Y.R.6XyX. ",
". eX1XR._.Y.Y.o @ f i.n.M cXW.M l v.i.] ,.-.;.@.] ] f 0 i._ :.3.` @.3._ g 8 p.R ] ` $.,.] ' %.f s.q.3.] ,.3.f > . `.Y.Y.R.6XyX. ",
". eX8XD.[.~._.% ; s p.g.V MXK.b u k.f.' } Q =.` ] @.f s i.` :.3.1.-.3.` g 7 i.` ] ` 3.,.] ' %.f s.u.3.] ,.3.f > o !.[.~._.8XiX. ",
"X iX1X>X7X<X4X= X s p.f.' b D ` i z.f.' } @.3.3.3.` f s s.` R _ 1.-.3.` g 7 i.` ] ` 3.,.] ' %.f s.u.1.R $.3.d > & ,X8X1X4X&XtX. ",
". eX<XY.}.Y.R.% ; i f.d.] M D ` f c.s.` } ] ] 3.;.] s s i.` ] { :.-.3.` g 7 i.` ] ` 3.,.] ] %.f s.u.:.:.-.3.f > X ].).{.{.7XuX. ",
". eX1XR.`.Y.I.o @ i f.d.| b D _ f c.s.` ] ] ` ,.3.{ s s i.` ` _ 1.-.3.` g 7 i.` ] ` 3.&.] | #.f u.y.1.=.Q ' f : . `.`.`.R.6XiX. ",
". eX2XL.Y.T.I.o # i f.k.| b D _ f c.f.` ] ] { ,.3.@.f s i.` ` ] 1.-.3.` g 7 i.` ] ' ,.,.] | #.f u.y.@.3.@.' f : . R.Y.U.Y.7XyX. ",
". eX1X].~.`.`.% ; i f.k.| b D ` f c.f.` ] ] { :.=.3.s s i.` ` ] 1.-.3.` g 7 i.` ] ` ;.&.` [ #.h i.8.` 3.@.` f : o '.~.'.Y.8XpX. ",
"X iX2X>X1X7X7X& # s k.d.} 4 B  .u c.s.` ] ` ] | @.=.d s i.` ` { ,.-.3.` g 7 i.` R =.=.-.-.| #.h i.8.` 3.=.,.i , * ,X1X1X6X1XfX. ",
". wX5X+X(.I.I.o @ s e.n.Z cXK.Z v N.s.' ] ] ] | @.=.d s i.` ` _ =.-.1.R g 7 i.` R =.=.-.-.| #.h i.8.` 3.=.,.i : . +X{.`.Y.dXiX. ",
". eX7XR.H.U.R.% @ f p.t.Z cXjXM u h.s.` ] ] ] | @.=.d s i.` ` { ,.-.$.] g 7 i.` R $.$.=.=.| #.f i.8.` 3.@._ f : . E.R.`.{.7XyX. ",
". eX7XR.(.U.Y.. @ f j.y.o.b F O.j k.s.` ] ] ] | @.=.d s i.` ` { ` @.` | g 7 i.R R $.! $.1.| <.f i.8.` 3.@.] f : X |.`.`.R.7XyX. ",
"+ iX2XT.R.L.Y.o X f i.h._ ..o.*.i c.s.` ] ] ] | @.$.d s i.` ` } ] ] ] ] f 7 i.$.3.$.` #.1.' <.h i.8.' @.@.] i > . U.R.R.R.8XtX. ",
". wX1XsX6X9X,X2 # f f.k.! { E | i z.s.` ] ] ] | @.=.d s i.` ` } ] ] ] ] f 7 p.=.-.` ` #.=._ #.h i.8.' ] ] ] d > = gXgX6XqX2XuX. ",
"o iX<XS.~.~.!.% @ i f.x.` X.' @.d v.s.` ] ] ] | @.=.d s i.` ` } ] ] ] ] g 7 p.~ -.] | #.1.6.3.h i.8._ | | ] i > . S.[.!.!.8XsX. ",
". eX1XR.`.Y.R.. @ f p.h.` ` ` @.f z.i.R ' ` ` ,.=.@.s 0 i.! | Q ` ` ` ` g 0 f.~ -.=.%.` ! ^ 5.g f.( ] ` @.` f > . {.{.`.R.7XyX. ",
". eX1XR.Y.P.|.4 a p K K x x x x p K K x x x x L P x v g K L x x x x x x k h K K L P x x x L x i K K x x x x d l 1 H._.Y.R.7XyX. ",
". eX1XR.`.E.B %.^ 2.1.^ 2.2.^ ^ 2./ ^ 1.2.2.1.2.^ ^ 2.^ 1./ ^ 1.2.2.2.2.^ 1.2.2.1.2.^ 2.2.2.2.2.5.1.^ ^ 2.2./ <. .B Q.Y.R.7XyX. ",
"X iX%X*X=X;Xd l.j.4.2.2.3.n.t.4.1.4.5.4.0.6.m.6.2.4.4.2.2.2.2.5.m.m.^ 4.2.2.2.2.2.4.m.n.4.2.2.2.2.5.7.m.7.2.2.2.t.h xX=X*X7XyX. ",
". eX7X-X:XNXy k.y.*.] %.} M.r.@.@.] ! @.@.X.bXX.` @.*.} } } } } M.m.@.` } } } } ] %.bXnXR } } } } ] _ vX..$.] X. .d NXhX-X1XuX. ",
"X tX2XT.R.I.r 7.g.} ) [ [ } _ ) O.X.} ..} ' } ' ' ..X.] ] ] ] ] ) _ O.X.] ] ] ] | [ _ ] } ] ] ] ] | { } { [ ] E ) n jXI.R.8XfX. ",
". wX7XU.`.J.T.n w s u s f i f f i u u i f f f f f f f k s f f f f i f f f P f f j f g g f u f f f u f f g u f w 1 U.(.I.R.7XyX. ",
"X wX7XY.H.U.I.. # i d 9 7 7 9 7 k g 0 7 u 9 s s 7 u u 7 q u u 9 7 8 u u 6 7 s u u s 7 u u 8 f f 7 9 u u f f 9 - o `.Y.I.I.6XsX. ",
". eX7XS.^.!.!.o # f f.l.3.1.&.| f v.l.R } ` =.R { | f s f.! | ! 3.$.#._ j 0 j.! _ 3.R #.=.]  .g k.9.] ] ] ] d : o !.S.!.S.5XpX. ",
". eX%X,X%X7X4X& @ p l.h.| 3.$.{ i c.f.` } ` =.Q { | f 9 i.! %.=.1.=.3.` h 7 i.! ' ,.R @.$.| >.g f.q.| | | | d , = 4X2X1XdX1XtX. ",
". eX7X}.{.}.|.o @ f l.s.} 1.$.@.p z.f.] ' Q 3.@.| ] f 9 i.` $.3.` $.1._ g 7 i.` ] ` 3.=.$.[ #.h i.8._ ] ] ] i : + |.zX}.{.6XtX. ",
"X wX%XT.P.R.{.% @ f l.s.} -.$.;.f N.s.' ,.3.] ] | ] f s e.` $.1.] @.3.` g 7 i.` ] _ &.3.` | #.h i.8._ ] ] ] f : . U.Y.I.Y.6XyX. ",
". eX1XY.'.Y.R.o @ f l.s.} Q <.;.f c.s.E &.3.' | { | f s e.;.-.-.@.@.-.1.g 8 i.` ] ] ' _ | | #.h i.8._ ] | ] f : o '.`._.Y.6XyX. ",
"X rX4X{.E.R.R.. @ h q.h.@.` _ Q a v.l.1.] ] ' ` _ _ i u u.! Q ` _ _ R 3.d q i.Q %._ _ _ _ ` @.h i.9.' ' ` ' s , o I.F.L.R.9XBX. ",
"  . o X . . . . . . v i h p s s X l s f h f f s s p ; @ d j f h s s s d # @ i p i f h h f p z X k f f f h v . . . . X X . o .   "
};
