/* XPM */
static char *ad15ed015cd743d0e135b592df72eae7xsF1Y9C3nq9hNy4n[] = {
/* columns rows colors chars-per-pixel */
"64 64 5 1 ",
"  c #663931",
". c #AC3232",
"X c #5FCDE4",
"o c #EEC39A",
"O c white",
/* pixels */
"XXXXXXXXXXXXXXXXXXXXXXXX            XXXXXXXXXXXXXXXXXXXXXXXXXXXX",
"XXXXXXXXXXXXXXXXXXXXXXXX            XXXXXXXXXXXXXXXXXXXXXXXXXXXX",
"XXXXXXXXXXXXXXXXXXXXXXXX            XXXXXXXXXXXXXXXXXXXXXXXXXXXX",
"XXXXXXXXXXXXXXXXXXXXXXXX            XXXXXXXXXXXXXXXXXXXXXXXXXXXX",
"XXXXXXXXXXXXXXXXXXXX                    XXXXXXXXXXXXXXXXXXXXXXXX",
"XXXXXXXXXXXXXXXXXXXX                    XXXXXXXXXXXXXXXXXXXXXXXX",
"XXXXXXXXXXXXXXXXXXXX                    XXXXXXXXXXXXXXXXXXXXXXXX",
"XXXXXXXXXXXXXXXXXXXX                    XXXXXXXXXXXXXXXXXXXXXXXX",
"XXXXXXXXXXXXXXXXXXXX    oooooooooooo    XXXXXXXXXXXXXXXXXXXXXXXX",
"XXXXXXXXXXXXXXXXXXXX    oooooooooooo    XXXXXXXXXXXXXXXXXXXXXXXX",
"XXXXXXXXXXXXXXXXXXXX    oooooooooooo    XXXXXXXXXXXXXXXXXXXXXXXX",
"XXXXXXXXXXXXXXXXXXXX    oooooooooooo    XXXXXXXXXXXXXXXXXXXXXXXX",
"XXXXXXXXXXXXXXXXXXXX    oooooooooooo    XXXXXXXXXXXXXXXXXXXXXXXX",
"XXXXXXXXXXXXXXXXXXXX    oooooooooooo    XXXXXXXXXXXXXXXXXXXXXXXX",
"XXXXXXXXXXXXXXXXXXXX    oooooooooooo    XXXXXXXXXXXXXXXXXXXXXXXX",
"XXXXXXXXXXXXXXXXXXXX    oooooooooooo    XXXXXXXXXXXXXXXXXXXXXXXX",
"XXXXXXXXXXXXXXXXXXXX    oooooooooooo    XXXXXXXXXXXXXXXXXXXXXXXX",
"XXXXXXXXXXXXXXXXXXXX    oooooooooooo    XXXXXXXXXXXXXXXXXXXXXXXX",
"XXXXXXXXXXXXXXXXXXXX    oooooooooooo    XXXXXXXXXXXXXXXXXXXXXXXX",
"XXXXXXXXXXXXXXXXXXXX    oooooooooooo    XXXXXXXXXXXXXXXXXXXXXXXX",
"XXXXXXXXXXXXXXXXXXXXXXXX    oooo    XXXXXXXXXXXXXXXXXXXXXXXXXXXX",
"XXXXXXXXXXXXXXXXXXXXXXXX    oooo    XXXXXXXXXXXXXXXXXXXXXXXXXXXX",
"XXXXXXXXXXXXXXXXXXXXXXXX    oooo    XXXXXXXXXXXXXXXXXXXXXXXXXXXX",
"XXXXXXXXXXXXXXXXXXXXXXXX    oooo    XXXXXXXXXXXXXXXXXXXXXXXXXXXX",
"XXXXXXXXXXXXXXXXXXXXOOOOOOOOOOOOOOOOOOOOXXXXXXXXXXXXXXXXXXXXXXXX",
"XXXXXXXXXXXXXXXXXXXXOOOOOOOOOOOOOOOOOOOOXXXXXXXXXXXXXXXXXXXXXXXX",
"XXXXXXXXXXXXXXXXXXXXOOOOOOOOOOOOOOOOOOOOXXXXXXXXXXXXXXXXXXXXXXXX",
"XXXXXXXXXXXXXXXXXXXXOOOOOOOOOOOOOOOOOOOOXXXXXXXXXXXXXXXXXXXXXXXX",
"XXXXXXXXXXXXXXXXOOOO........OOOO........OOOOXXXXXXXXXXXXXXXXXXXX",
"XXXXXXXXXXXXXXXXOOOO........OOOO........OOOOXXXXXXXXXXXXXXXXXXXX",
"XXXXXXXXXXXXXXXXOOOO........OOOO........OOOOXXXXXXXXXXXXXXXXXXXX",
"XXXXXXXXXXXXXXXXOOOO........OOOO........OOOOXXXXXXXXXXXXXXXXXXXX",
"XXXXXXXXXXXXOOOOOOOO....................OOOOOOOOXXXXXXXXXXXXXXXX",
"XXXXXXXXXXXXOOOOOOOO....................OOOOOOOOXXXXXXXXXXXXXXXX",
"XXXXXXXXXXXXOOOOOOOO....................OOOOOOOOXXXXXXXXXXXXXXXX",
"XXXXXXXXXXXXOOOOOOOO....................OOOOOOOOXXXXXXXXXXXXXXXX",
"XXXXXXXXXXXXXXXXOOOOoooo............ooooOOOOXXXXXXXXXXXXXXXXXXXX",
"XXXXXXXXXXXXXXXXOOOOoooo............ooooOOOOXXXXXXXXXXXXXXXXXXXX",
"XXXXXXXXXXXXXXXXOOOOoooo............ooooOOOOXXXXXXXXXXXXXXXXXXXX",
"XXXXXXXXXXXXXXXXOOOOoooo............ooooOOOOXXXXXXXXXXXXXXXXXXXX",
"XXXXXXXXXXXXXXXXXXXXOOOOOOOO....OOOOOOOOXXXXXXXXXXXXXXXXXXXXXXXX",
"XXXXXXXXXXXXXXXXXXXXOOOOOOOO....OOOOOOOOXXXXXXXXXXXXXXXXXXXXXXXX",
"XXXXXXXXXXXXXXXXXXXXOOOOOOOO....OOOOOOOOXXXXXXXXXXXXXXXXXXXXXXXX",
"XXXXXXXXXXXXXXXXXXXXOOOOOOOO....OOOOOOOOXXXXXXXXXXXXXXXXXXXXXXXX",
"XXXXXXXXXXXXXXXXXXXXOOOOOOOOOOOOOOOOOOOOXXXXXXXXXXXXXXXXXXXXXXXX",
"XXXXXXXXXXXXXXXXXXXXOOOOOOOOOOOOOOOOOOOOXXXXXXXXXXXXXXXXXXXXXXXX",
"XXXXXXXXXXXXXXXXXXXXOOOOOOOOOOOOOOOOOOOOXXXXXXXXXXXXXXXXXXXXXXXX",
"XXXXXXXXXXXXXXXXXXXXOOOOOOOOOOOOOOOOOOOOXXXXXXXXXXXXXXXXXXXXXXXX",
"XXXXXXXXXXXXXXXXXXXXOOOOOOOOOOOOOOOOOOOOXXXXXXXXXXXXXXXXXXXXXXXX",
"XXXXXXXXXXXXXXXXXXXXOOOOOOOOOOOOOOOOOOOOXXXXXXXXXXXXXXXXXXXXXXXX",
"XXXXXXXXXXXXXXXXXXXXOOOOOOOOOOOOOOOOOOOOXXXXXXXXXXXXXXXXXXXXXXXX",
"XXXXXXXXXXXXXXXXXXXXOOOOOOOOOOOOOOOOOOOOXXXXXXXXXXXXXXXXXXXXXXXX",
"XXXXXXXXXXXXXXXXXXXXOOOOOOOOOOOOOOOOOOOOXXXXXXXXXXXXXXXXXXXXXXXX",
"XXXXXXXXXXXXXXXXXXXXOOOOOOOOOOOOOOOOOOOOXXXXXXXXXXXXXXXXXXXXXXXX",
"XXXXXXXXXXXXXXXXXXXXOOOOOOOOOOOOOOOOOOOOXXXXXXXXXXXXXXXXXXXXXXXX",
"XXXXXXXXXXXXXXXXXXXXOOOOOOOOOOOOOOOOOOOOXXXXXXXXXXXXXXXXXXXXXXXX",
"XXXXXXXXXXXXXXXXXXXXXXXXOOOOXXXXOOOOXXXXXXXXXXXXXXXXXXXXXXXXXXXX",
"XXXXXXXXXXXXXXXXXXXXXXXXOOOOXXXXOOOOXXXXXXXXXXXXXXXXXXXXXXXXXXXX",
"XXXXXXXXXXXXXXXXXXXXXXXXOOOOXXXXOOOOXXXXXXXXXXXXXXXXXXXXXXXXXXXX",
"XXXXXXXXXXXXXXXXXXXXXXXXOOOOXXXXOOOOXXXXXXXXXXXXXXXXXXXXXXXXXXXX",
"XXXXXXXXXXXXXXXXXXXXXXXXooooXXXXooooXXXXXXXXXXXXXXXXXXXXXXXXXXXX",
"XXXXXXXXXXXXXXXXXXXXXXXXooooXXXXooooXXXXXXXXXXXXXXXXXXXXXXXXXXXX",
"XXXXXXXXXXXXXXXXXXXXXXXXooooXXXXooooXXXXXXXXXXXXXXXXXXXXXXXXXXXX",
"XXXXXXXXXXXXXXXXXXXXXXXXooooXXXXooooXXXXXXXXXXXXXXXXXXXXXXXXXXXX"
};
