/* XPM */
static char *f307104e5b2e4552fdeab2f80ec909caoTksxsQKXOVsK06i[] = {
/* columns rows colors chars-per-pixel */
"64 64 5 1 ",
"  c #005784",
". c #27C1A7",
"X c #31A2F2",
"o c #5FCDE4",
"O c white",
/* pixels */
"oooooooooooooooooooooooooooooooooooooooooooooooooooooooooooooooo",
"oooooooooooooooooooooooooooooooooooooooooooooooooooooooooooooooo",
"oooooooooooooooooooooooooooooooooooooooooooooooooooooooooooooooo",
"oooooooooooooooooooooooooooooooooooooooooooooooooooooooooooooooo",
"oooooooooooooooooooooooooooooooooooooooooooooooooooooooooooooooo",
"oooooooooooooooooooooooooooooooooooooooooooooooooooooooooooooooo",
"oooooooooooooooooooooooooooooooooooooooooooooooooooooooooooooooo",
"oooooooooooooooooooooooooooooooooooooooooooooooooooooooooooooooo",
"oooooooooooooooooooooooooooooooooooooooooooooooooooooooooooooooo",
"oooooooooooooooooooooooooooooooooooooooooooooooooooooooooooooooo",
"oooooooooooooooooooooooooooooooooooooooooooooooooooooooooooooooo",
"oooooooooooooooooooooooooooooooooooooooooooooooooooooooooooooooo",
"oooooooooooooooooooooooooooooooooooooooooooooooooooooooooooooooo",
"oooooooooooooooooooooooooooooooooooooooooooooooooooooooooooooooo",
"oooooooooooooooooooooooooooooooooooooooooooooooooooooooooooooooo",
"oooooooooooooooooooooooooooooooooooooooooooooooooooooooooooooooo",
"oooooooooooooooooooooooooooooooooooooooooooooooooooooooooooooooo",
"oooooooooooooooooooooooooooooooooooooooooooooooooooooooooooooooo",
"oooooooooooooooooooooooooooooooooooooooooooooooooooooooooooooooo",
"oooooooooooooooooooooooooooooooooooooooooooooooooooooooooooooooo",
"ooooooooooooooooooooooooooooooooOOOOOOOOOOOOoooooooooooooooooooo",
"ooooooooooooooooooooooooooooooooOOOOOOOOOOOOoooooooooooooooooooo",
"ooooooooooooooooooooooooooooooooOOOOOOOOOOOOoooooooooooooooooooo",
"ooooooooooooooooooooooooooooooooOOOOOOOOOOOOoooooooooooooooooooo",
"ooooooooooooooooooooooooOOOOOOOO............OOOOoooooooooooooooo",
"ooooooooooooooooooooooooOOOOOOOO............OOOOoooooooooooooooo",
"ooooooooooooooooooooooooOOOOOOOO............OOOOoooooooooooooooo",
"ooooooooooooooooooooooooOOOOOOOO............OOOOoooooooooooooooo",
"ooooooooooooooooooooOOOO........................OOOOoooooooooooo",
"ooooooooooooooooooooOOOO........................OOOOoooooooooooo",
"ooooooooooooooooooooOOOO........................OOOOoooooooooooo",
"ooooooooooooooooooooOOOO........................OOOOoooooooooooo",
"ooooooooooooooooOOOOXXXXXXXXXXXXXXXXXXXXXXXXOOOOoooooooooooooooo",
"ooooooooooooooooOOOOXXXXXXXXXXXXXXXXXXXXXXXXOOOOoooooooooooooooo",
"ooooooooooooooooOOOOXXXXXXXXXXXXXXXXXXXXXXXXOOOOoooooooooooooooo",
"ooooooooooooooooOOOOXXXXXXXXXXXXXXXXXXXXXXXXOOOOoooooooooooooooo",
"ooooooooooooOOOOXXXXXXXXXXXXXXXXXXXXXXXXOOOOoooooooooooooooooooo",
"ooooooooooooOOOOXXXXXXXXXXXXXXXXXXXXXXXXOOOOoooooooooooooooooooo",
"ooooooooooooOOOOXXXXXXXXXXXXXXXXXXXXXXXXOOOOoooooooooooooooooooo",
"ooooooooooooOOOOXXXXXXXXXXXXXXXXXXXXXXXXOOOOoooooooooooooooooooo",
"ooooooooOOOO                            OOOOoooooooooooooooooooo",
"ooooooooOOOO                            OOOOoooooooooooooooooooo",
"ooooooooOOOO                            OOOOoooooooooooooooooooo",
"ooooooooOOOO                            OOOOoooooooooooooooooooo",
"ooooOOOOOOOO                                OOOOOOOOOOOOoooooooo",
"ooooOOOOOOOO                                OOOOOOOOOOOOoooooooo",
"ooooOOOOOOOO                                OOOOOOOOOOOOoooooooo",
"ooooOOOOOOOO                                OOOOOOOOOOOOoooooooo",
"oooooooooooooooooooooooooooooooooooooooooooooooooooooooooooooooo",
"oooooooooooooooooooooooooooooooooooooooooooooooooooooooooooooooo",
"oooooooooooooooooooooooooooooooooooooooooooooooooooooooooooooooo",
"oooooooooooooooooooooooooooooooooooooooooooooooooooooooooooooooo",
"oooooooooooooooooooooooooooooooooooooooooooooooooooooooooooooooo",
"oooooooooooooooooooooooooooooooooooooooooooooooooooooooooooooooo",
"oooooooooooooooooooooooooooooooooooooooooooooooooooooooooooooooo",
"oooooooooooooooooooooooooooooooooooooooooooooooooooooooooooooooo",
"oooooooooooooooooooooooooooooooooooooooooooooooooooooooooooooooo",
"oooooooooooooooooooooooooooooooooooooooooooooooooooooooooooooooo",
"oooooooooooooooooooooooooooooooooooooooooooooooooooooooooooooooo",
"oooooooooooooooooooooooooooooooooooooooooooooooooooooooooooooooo",
"oooooooooooooooooooooooooooooooooooooooooooooooooooooooooooooooo",
"oooooooooooooooooooooooooooooooooooooooooooooooooooooooooooooooo",
"oooooooooooooooooooooooooooooooooooooooooooooooooooooooooooooooo",
"oooooooooooooooooooooooooooooooooooooooooooooooooooooooooooooooo"
};
